<?xml version="1.0" encoding="UTF-8"?>
<svg xmlns="http://www.w3.org/2000/svg"
     xmlns:xlink="http://www.w3.org/1999/xlink"
     version="1.2"
     width="140mm" height="140mm" viewBox="0 0 140 140"
     stroke="none"
     fill="#000000"
     stroke-width="0.3"
     font-size="3.88"
>
<defs>
  <marker id="arrow" markerWidth="15" markerHeight="7" refX="5" refY="3.5" orient="auto" markerUnits="strokeWidth">
    <path d="M0,0 L15,3.5 L0,7 z" stroke="context-stroke" fill="context-stroke"/>
  </marker>
</defs>
<g fill="#333333" id="img-f762fe7a-1">
  <g transform="translate(70,70)">
    <path d="M-70,-70 L 70 -70 70 70 -70 70 z" class="primitive"/>
  </g>
</g>
<g stroke="#F4E6D6" id="img-f762fe7a-2">
  <g transform="translate(108.89,112)">
    <path fill="none" d="M18.15,-14 L -18.15 14" class="primitive"/>
  </g>
  <g transform="translate(103.7,112)">
    <path fill="none" d="M18.15,-14 L -18.15 14" class="primitive"/>
  </g>
  <g transform="translate(101.11,112)">
    <path fill="none" d="M20.74,-14 L -20.74 14" class="primitive"/>
  </g>
  <g transform="translate(90.74,112)">
    <path fill="none" d="M15.56,-14 L -15.56 14" class="primitive"/>
  </g>
  <g transform="translate(85.56,112)">
    <path fill="none" d="M15.56,-14 L -15.56 14" class="primitive"/>
  </g>
  <g transform="translate(82.96,112)">
    <path fill="none" d="M18.15,-14 L -18.15 14" class="primitive"/>
  </g>
  <g transform="translate(72.59,112)">
    <path fill="none" d="M12.96,-14 L -12.96 14" class="primitive"/>
  </g>
  <g transform="translate(67.41,112)">
    <path fill="none" d="M12.96,-14 L -12.96 14" class="primitive"/>
  </g>
  <g transform="translate(64.81,112)">
    <path fill="none" d="M15.56,-14 L -15.56 14" class="primitive"/>
  </g>
  <g transform="translate(54.44,112)">
    <path fill="none" d="M10.37,-14 L -10.37 14" class="primitive"/>
  </g>
  <g transform="translate(49.26,112)">
    <path fill="none" d="M10.37,-14 L -10.37 14" class="primitive"/>
  </g>
  <g transform="translate(46.67,112)">
    <path fill="none" d="M12.96,-14 L -12.96 14" class="primitive"/>
  </g>
  <g transform="translate(36.3,112)">
    <path fill="none" d="M7.78,-14 L -7.78 14" class="primitive"/>
  </g>
  <g transform="translate(31.11,112)">
    <path fill="none" d="M7.78,-14 L -7.78 14" class="primitive"/>
  </g>
  <g transform="translate(28.52,112)">
    <path fill="none" d="M10.37,-14 L -10.37 14" class="primitive"/>
  </g>
  <g transform="translate(18.15,112)">
    <path fill="none" d="M5.19,-14 L -5.19 14" class="primitive"/>
  </g>
  <g transform="translate(12.96,112)">
    <path fill="none" d="M5.19,-14 L -5.19 14" class="primitive"/>
  </g>
  <g transform="translate(10.37,112)">
    <path fill="none" d="M7.78,-14 L -7.78 14" class="primitive"/>
  </g>
  <g transform="translate(85.56,84)">
    <path fill="none" d="M-51.85,-14 L 51.85 14" class="primitive"/>
  </g>
  <g transform="translate(82.96,84)">
    <path fill="none" d="M-49.26,-14 L 49.26 14" class="primitive"/>
  </g>
  <g transform="translate(80.37,84)">
    <path fill="none" d="M-46.67,-14 L 46.67 14" class="primitive"/>
  </g>
  <g transform="translate(77.78,84)">
    <path fill="none" d="M-44.07,-14 L 44.07 14" class="primitive"/>
  </g>
  <g transform="translate(72.59,84)">
    <path fill="none" d="M-44.07,-14 L 44.07 14" class="primitive"/>
  </g>
  <g transform="translate(70,84)">
    <path fill="none" d="M-41.48,-14 L 41.48 14" class="primitive"/>
  </g>
  <g transform="translate(67.41,84)">
    <path fill="none" d="M-38.89,-14 L 38.89 14" class="primitive"/>
  </g>
  <g transform="translate(64.81,84)">
    <path fill="none" d="M-36.3,-14 L 36.3 14" class="primitive"/>
  </g>
  <g transform="translate(59.63,84)">
    <path fill="none" d="M-36.3,-14 L 36.3 14" class="primitive"/>
  </g>
  <g transform="translate(57.04,84)">
    <path fill="none" d="M-33.7,-14 L 33.7 14" class="primitive"/>
  </g>
  <g transform="translate(54.44,84)">
    <path fill="none" d="M-31.11,-14 L 31.11 14" class="primitive"/>
  </g>
  <g transform="translate(51.85,84)">
    <path fill="none" d="M-28.52,-14 L 28.52 14" class="primitive"/>
  </g>
  <g transform="translate(46.67,84)">
    <path fill="none" d="M-28.52,-14 L 28.52 14" class="primitive"/>
  </g>
  <g transform="translate(44.07,84)">
    <path fill="none" d="M-25.93,-14 L 25.93 14" class="primitive"/>
  </g>
  <g transform="translate(41.48,84)">
    <path fill="none" d="M-23.33,-14 L 23.33 14" class="primitive"/>
  </g>
  <g transform="translate(38.89,84)">
    <path fill="none" d="M-20.74,-14 L 20.74 14" class="primitive"/>
  </g>
  <g transform="translate(33.7,84)">
    <path fill="none" d="M-20.74,-14 L 20.74 14" class="primitive"/>
  </g>
  <g transform="translate(31.11,84)">
    <path fill="none" d="M-18.15,-14 L 18.15 14" class="primitive"/>
  </g>
  <g transform="translate(28.52,84)">
    <path fill="none" d="M-15.56,-14 L 15.56 14" class="primitive"/>
  </g>
  <g transform="translate(25.93,84)">
    <path fill="none" d="M-12.96,-14 L 12.96 14" class="primitive"/>
  </g>
  <g transform="translate(20.74,84)">
    <path fill="none" d="M-12.96,-14 L 12.96 14" class="primitive"/>
  </g>
  <g transform="translate(18.15,84)">
    <path fill="none" d="M-10.37,-14 L 10.37 14" class="primitive"/>
  </g>
  <g transform="translate(15.56,84)">
    <path fill="none" d="M-7.78,-14 L 7.78 14" class="primitive"/>
  </g>
  <g transform="translate(12.96,84)">
    <path fill="none" d="M-5.19,-14 L 5.19 14" class="primitive"/>
  </g>
  <g transform="translate(7.78,84)">
    <path fill="none" d="M-5.19,-14 L 5.19 14" class="primitive"/>
  </g>
  <g transform="translate(5.19,84)">
    <path fill="none" d="M-2.59,-14 L 2.59 14" class="primitive"/>
  </g>
  <g transform="translate(2.59,84)">
    <path fill="none" d="M0,-14 L 0 14" class="primitive"/>
  </g>
  <g transform="translate(18.15,56)">
    <path fill="none" d="M-15.56,-14 L 15.56 14" class="primitive"/>
  </g>
  <g transform="translate(15.56,56)">
    <path fill="none" d="M-12.96,-14 L 12.96 14" class="primitive"/>
  </g>
  <g transform="translate(12.96,56)">
    <path fill="none" d="M-10.37,-14 L 10.37 14" class="primitive"/>
  </g>
  <g transform="translate(10.37,56)">
    <path fill="none" d="M-7.78,-14 L 7.78 14" class="primitive"/>
  </g>
  <g transform="translate(7.78,56)">
    <path fill="none" d="M-5.19,-14 L 5.19 14" class="primitive"/>
  </g>
  <g transform="translate(5.19,56)">
    <path fill="none" d="M-2.59,-14 L 2.59 14" class="primitive"/>
  </g>
  <g transform="translate(2.59,56)">
    <path fill="none" d="M0,-14 L 0 14" class="primitive"/>
  </g>
  <g transform="translate(2.59,28)">
    <path fill="none" d="M0,-14 L 0 14" class="primitive"/>
  </g>
</g>
<g stroke-width="0.5" stroke="#333333" id="img-f762fe7a-3">
  <g fill="#00C5C0" id="img-f762fe7a-4">
    <g transform="translate(90.74,126)">
      <path d="M-3,-3 L 3 -3 3 3 -3 3 z" class="primitive"/>
    </g>
  </g>
  <g fill="#000000" id="img-f762fe7a-5">
    <g transform="translate(90.74,126)">
      <g class="primitive">
        <text text-anchor="middle" dy="0.35em">C</text>
      </g>
    </g>
  </g>
  <g fill="#FF6B69" id="img-f762fe7a-6">
    <g transform="translate(85.56,125)">
      <path d="M-3,-2 L 3 -2 0 4 z" class="primitive"/>
    </g>
  </g>
  <g fill="#00C5C0" id="img-f762fe7a-7">
    <g transform="translate(80.37,126)">
      <path d="M-3,-3 L 3 -3 3 3 -3 3 z" class="primitive"/>
    </g>
  </g>
  <g fill="#000000" id="img-f762fe7a-8">
    <g transform="translate(80.37,126)">
      <g class="primitive">
        <text text-anchor="middle" dy="0.35em">L</text>
      </g>
    </g>
  </g>
  <g fill="#00C5C0" id="img-f762fe7a-9">
    <g transform="translate(75.19,126)">
      <path d="M-3,-3 L 3 -3 3 3 -3 3 z" class="primitive"/>
    </g>
  </g>
  <g fill="#000000" id="img-f762fe7a-10">
    <g transform="translate(75.19,126)">
      <g class="primitive">
        <text text-anchor="middle" dy="0.35em">C</text>
      </g>
    </g>
  </g>
  <g fill="#FF6B69" id="img-f762fe7a-11">
    <g transform="translate(70,125)">
      <path d="M-3,-2 L 3 -2 0 4 z" class="primitive"/>
    </g>
  </g>
  <g fill="#00C5C0" id="img-f762fe7a-12">
    <g transform="translate(64.81,126)">
      <path d="M-3,-3 L 3 -3 3 3 -3 3 z" class="primitive"/>
    </g>
  </g>
  <g fill="#000000" id="img-f762fe7a-13">
    <g transform="translate(64.81,126)">
      <g class="primitive">
        <text text-anchor="middle" dy="0.35em">L</text>
      </g>
    </g>
  </g>
  <g fill="#00C5C0" id="img-f762fe7a-14">
    <g transform="translate(59.63,126)">
      <path d="M-3,-3 L 3 -3 3 3 -3 3 z" class="primitive"/>
    </g>
  </g>
  <g fill="#000000" id="img-f762fe7a-15">
    <g transform="translate(59.63,126)">
      <g class="primitive">
        <text text-anchor="middle" dy="0.35em">C</text>
      </g>
    </g>
  </g>
  <g fill="#FF6B69" id="img-f762fe7a-16">
    <g transform="translate(54.44,125)">
      <path d="M-3,-2 L 3 -2 0 4 z" class="primitive"/>
    </g>
  </g>
  <g fill="#00C5C0" id="img-f762fe7a-17">
    <g transform="translate(49.26,126)">
      <path d="M-3,-3 L 3 -3 3 3 -3 3 z" class="primitive"/>
    </g>
  </g>
  <g fill="#000000" id="img-f762fe7a-18">
    <g transform="translate(49.26,126)">
      <g class="primitive">
        <text text-anchor="middle" dy="0.35em">L</text>
      </g>
    </g>
  </g>
  <g fill="#00C5C0" id="img-f762fe7a-19">
    <g transform="translate(44.07,126)">
      <path d="M-3,-3 L 3 -3 3 3 -3 3 z" class="primitive"/>
    </g>
  </g>
  <g fill="#000000" id="img-f762fe7a-20">
    <g transform="translate(44.07,126)">
      <g class="primitive">
        <text text-anchor="middle" dy="0.35em">C</text>
      </g>
    </g>
  </g>
  <g fill="#FF6B69" id="img-f762fe7a-21">
    <g transform="translate(38.89,125)">
      <path d="M-3,-2 L 3 -2 0 4 z" class="primitive"/>
    </g>
  </g>
  <g fill="#00C5C0" id="img-f762fe7a-22">
    <g transform="translate(33.7,126)">
      <path d="M-3,-3 L 3 -3 3 3 -3 3 z" class="primitive"/>
    </g>
  </g>
  <g fill="#000000" id="img-f762fe7a-23">
    <g transform="translate(33.7,126)">
      <g class="primitive">
        <text text-anchor="middle" dy="0.35em">L</text>
      </g>
    </g>
  </g>
  <g fill="#00C5C0" id="img-f762fe7a-24">
    <g transform="translate(28.52,126)">
      <path d="M-3,-3 L 3 -3 3 3 -3 3 z" class="primitive"/>
    </g>
  </g>
  <g fill="#000000" id="img-f762fe7a-25">
    <g transform="translate(28.52,126)">
      <g class="primitive">
        <text text-anchor="middle" dy="0.35em">C</text>
      </g>
    </g>
  </g>
  <g fill="#FF6B69" id="img-f762fe7a-26">
    <g transform="translate(23.33,125)">
      <path d="M-3,-2 L 3 -2 0 4 z" class="primitive"/>
    </g>
  </g>
  <g fill="#00C5C0" id="img-f762fe7a-27">
    <g transform="translate(18.15,126)">
      <path d="M-3,-3 L 3 -3 3 3 -3 3 z" class="primitive"/>
    </g>
  </g>
  <g fill="#000000" id="img-f762fe7a-28">
    <g transform="translate(18.15,126)">
      <g class="primitive">
        <text text-anchor="middle" dy="0.35em">L</text>
      </g>
    </g>
  </g>
  <g fill="#00C5C0" id="img-f762fe7a-29">
    <g transform="translate(12.96,126)">
      <path d="M-3,-3 L 3 -3 3 3 -3 3 z" class="primitive"/>
    </g>
  </g>
  <g fill="#000000" id="img-f762fe7a-30">
    <g transform="translate(12.96,126)">
      <g class="primitive">
        <text text-anchor="middle" dy="0.35em">C</text>
      </g>
    </g>
  </g>
  <g fill="#FF6B69" id="img-f762fe7a-31">
    <g transform="translate(7.78,125)">
      <path d="M-3,-2 L 3 -2 -0 4 z" class="primitive"/>
    </g>
  </g>
  <g fill="#00C5C0" id="img-f762fe7a-32">
    <g transform="translate(2.59,126)">
      <path d="M-3,-3 L 3 -3 3 3 -3 3 z" class="primitive"/>
    </g>
  </g>
  <g fill="#000000" id="img-f762fe7a-33">
    <g transform="translate(2.59,126)">
      <g class="primitive">
        <text text-anchor="middle" dy="0.35em">L</text>
      </g>
    </g>
  </g>
  <g fill="#FF6B69" id="img-f762fe7a-34">
    <g transform="translate(137.41,97)">
      <path d="M-3,-2 L 3 -2 0 4 z" class="primitive"/>
    </g>
  </g>
  <g fill="#FF6B69" id="img-f762fe7a-35">
    <g transform="translate(132.22,97)">
      <path d="M-3,-2 L 3 -2 0 4 z" class="primitive"/>
    </g>
  </g>
  <g fill="#F4E6D6" id="img-f762fe7a-36">
    <g transform="translate(127.04,98)">
      <circle cx="0" cy="0" r="3" class="primitive"/>
    </g>
  </g>
  <g fill="#F4E6D6" id="img-f762fe7a-37">
    <g transform="translate(121.85,98)">
      <circle cx="0" cy="0" r="3" class="primitive"/>
    </g>
  </g>
  <g fill="#FF6B69" id="img-f762fe7a-38">
    <g transform="translate(116.67,97)">
      <path d="M-3,-2 L 3 -2 -0 4 z" class="primitive"/>
    </g>
  </g>
  <g fill="#FF6B69" id="img-f762fe7a-39">
    <g transform="translate(111.48,97)">
      <path d="M-3,-2 L 3 -2 0 4 z" class="primitive"/>
    </g>
  </g>
  <g fill="#F4E6D6" id="img-f762fe7a-40">
    <g transform="translate(106.3,98)">
      <circle cx="0" cy="0" r="3" class="primitive"/>
    </g>
  </g>
  <g fill="#F4E6D6" id="img-f762fe7a-41">
    <g transform="translate(101.11,98)">
      <circle cx="0" cy="0" r="3" class="primitive"/>
    </g>
  </g>
  <g fill="#FF6B69" id="img-f762fe7a-42">
    <g transform="translate(95.93,97)">
      <path d="M-3,-2 L 3 -2 0 4 z" class="primitive"/>
    </g>
  </g>
  <g fill="#FF6B69" id="img-f762fe7a-43">
    <g transform="translate(90.74,97)">
      <path d="M-3,-2 L 3 -2 0 4 z" class="primitive"/>
    </g>
  </g>
  <g fill="#F4E6D6" id="img-f762fe7a-44">
    <g transform="translate(85.56,98)">
      <circle cx="0" cy="0" r="3" class="primitive"/>
    </g>
  </g>
  <g fill="#F4E6D6" id="img-f762fe7a-45">
    <g transform="translate(80.37,98)">
      <circle cx="0" cy="0" r="3" class="primitive"/>
    </g>
  </g>
  <g fill="#FF6B69" id="img-f762fe7a-46">
    <g transform="translate(75.19,97)">
      <path d="M-3,-2 L 3 -2 0 4 z" class="primitive"/>
    </g>
  </g>
  <g fill="#FF6B69" id="img-f762fe7a-47">
    <g transform="translate(70,97)">
      <path d="M-3,-2 L 3 -2 0 4 z" class="primitive"/>
    </g>
  </g>
  <g fill="#F4E6D6" id="img-f762fe7a-48">
    <g transform="translate(64.81,98)">
      <circle cx="0" cy="0" r="3" class="primitive"/>
    </g>
  </g>
  <g fill="#F4E6D6" id="img-f762fe7a-49">
    <g transform="translate(59.63,98)">
      <circle cx="0" cy="0" r="3" class="primitive"/>
    </g>
  </g>
  <g fill="#FF6B69" id="img-f762fe7a-50">
    <g transform="translate(54.44,97)">
      <path d="M-3,-2 L 3 -2 0 4 z" class="primitive"/>
    </g>
  </g>
  <g fill="#FF6B69" id="img-f762fe7a-51">
    <g transform="translate(49.26,97)">
      <path d="M-3,-2 L 3 -2 0 4 z" class="primitive"/>
    </g>
  </g>
  <g fill="#F4E6D6" id="img-f762fe7a-52">
    <g transform="translate(44.07,98)">
      <circle cx="0" cy="0" r="3" class="primitive"/>
    </g>
  </g>
  <g fill="#F4E6D6" id="img-f762fe7a-53">
    <g transform="translate(38.89,98)">
      <circle cx="0" cy="0" r="3" class="primitive"/>
    </g>
  </g>
  <g fill="#FF6B69" id="img-f762fe7a-54">
    <g transform="translate(33.7,97)">
      <path d="M-3,-2 L 3 -2 0 4 z" class="primitive"/>
    </g>
  </g>
  <g fill="#FF6B69" id="img-f762fe7a-55">
    <g transform="translate(28.52,97)">
      <path d="M-3,-2 L 3 -2 0 4 z" class="primitive"/>
    </g>
  </g>
  <g fill="#F4E6D6" id="img-f762fe7a-56">
    <g transform="translate(23.33,98)">
      <circle cx="0" cy="0" r="3" class="primitive"/>
    </g>
  </g>
  <g fill="#F4E6D6" id="img-f762fe7a-57">
    <g transform="translate(18.15,98)">
      <circle cx="0" cy="0" r="3" class="primitive"/>
    </g>
  </g>
  <g fill="#FF6B69" id="img-f762fe7a-58">
    <g transform="translate(12.96,97)">
      <path d="M-3,-2 L 3 -2 0 4 z" class="primitive"/>
    </g>
  </g>
  <g fill="#FF6B69" id="img-f762fe7a-59">
    <g transform="translate(7.78,97)">
      <path d="M-3,-2 L 3 -2 -0 4 z" class="primitive"/>
    </g>
  </g>
  <g fill="#00C5C0" id="img-f762fe7a-60">
    <g transform="translate(2.59,98)">
      <path d="M-3,-3 L 3 -3 3 3 -3 3 z" class="primitive"/>
    </g>
  </g>
  <g fill="#000000" id="img-f762fe7a-61">
    <g transform="translate(2.59,98)">
      <g class="primitive">
        <text text-anchor="middle" dy="0.35em">R</text>
      </g>
    </g>
  </g>
  <g fill="#F4E6D6" id="img-f762fe7a-62">
    <g transform="translate(33.7,70)">
      <circle cx="0" cy="0" r="3" class="primitive"/>
    </g>
  </g>
  <g fill="#F4E6D6" id="img-f762fe7a-63">
    <g transform="translate(28.52,70)">
      <circle cx="0" cy="0" r="3" class="primitive"/>
    </g>
  </g>
  <g fill="#F4E6D6" id="img-f762fe7a-64">
    <g transform="translate(23.33,70)">
      <circle cx="0" cy="0" r="3" class="primitive"/>
    </g>
  </g>
  <g fill="#F4E6D6" id="img-f762fe7a-65">
    <g transform="translate(18.15,70)">
      <circle cx="0" cy="0" r="3" class="primitive"/>
    </g>
  </g>
  <g fill="#F4E6D6" id="img-f762fe7a-66">
    <g transform="translate(12.96,70)">
      <circle cx="0" cy="0" r="3" class="primitive"/>
    </g>
  </g>
  <g fill="#F4E6D6" id="img-f762fe7a-67">
    <g transform="translate(7.78,70)">
      <circle cx="0" cy="0" r="3" class="primitive"/>
    </g>
  </g>
  <g fill="#F4E6D6" id="img-f762fe7a-68">
    <g transform="translate(2.59,70)">
      <circle cx="0" cy="0" r="3" class="primitive"/>
    </g>
  </g>
  <g fill="#F4E6D6" id="img-f762fe7a-69">
    <g transform="translate(2.59,42)">
      <circle cx="0" cy="0" r="3" class="primitive"/>
    </g>
  </g>
  <g fill="#F4E6D6" id="img-f762fe7a-70">
    <g transform="translate(2.59,14)">
      <circle cx="0" cy="0" r="3" class="primitive"/>
    </g>
  </g>
</g>
</svg>
